<svg width="128" height="128" viewBox="0 0 128 128" fill="none" xmlns="http://www.w3.org/2000/svg">
<path d="M64 114C91.6142 114 114 91.6142 114 64C114 36.3858 91.6142 14 64 14C36.3858 14 14 36.3858 14 64C14 91.6142 36.3858 114 64 114Z" fill="#292929"/>
<path d="M64.1215 91.364C63.3935 91.364 62.6705 91.1733 62.0322 90.8057L55.3818 86.8684C54.3885 86.313 54.8731 86.1163 55.2008 86.0033C56.5251 85.5396 56.7939 85.4349 58.2076 84.6319C58.3562 84.547 58.5507 84.5769 58.7028 84.6667L63.8119 87.6986C63.9964 87.7985 64.2582 87.7985 64.4292 87.6986L84.3502 76.1997C84.5346 76.0949 84.6543 75.8807 84.6543 75.6611V52.6737C84.6543 52.4443 84.5346 52.2399 84.3461 52.1252L64.4332 40.6364C64.2487 40.5267 64.0044 40.5267 63.8198 40.6364L43.9109 52.1252C43.7179 52.2349 43.5953 52.4493 43.5953 52.6687V75.6563C43.5953 75.8758 43.7149 76.0852 43.9044 76.1899L49.3596 79.3411C52.3216 80.8221 54.1317 79.0771 54.1317 77.3216V54.6334C54.1317 54.3093 54.3859 54.0599 54.7101 54.0599H57.2332C57.5474 54.0599 57.8067 54.3093 57.8067 54.6334V77.3317C57.8067 81.281 55.6525 83.55 51.9077 83.55C50.7558 83.55 49.8483 83.55 47.3152 82.3031L42.0893 79.2914C40.7979 78.5434 40 77.1473 40 75.6563V52.6687C40 51.1727 40.7979 49.7765 42.0893 49.0386L62.0302 37.5348C63.2918 36.8217 64.9672 36.8217 66.2188 37.5348L86.1349 49.0435C87.4214 49.7865 88.224 51.1778 88.224 52.6737V75.6611C88.224 77.1522 87.4214 78.5434 86.1349 79.2914L66.2188 90.7952C65.5806 91.1643 64.8575 91.3536 64.1196 91.3536" fill="#689F63"/>
<path d="M70.2748 75.5243C61.5585 75.5243 59.731 71.523 59.731 68.1672C59.731 67.8478 59.9883 67.5935 60.3079 67.5935H62.8809C63.1652 67.5935 63.4045 67.8007 63.4494 68.0812C63.8383 70.7032 64.9952 72.0256 70.2659 72.0256C74.4643 72.0256 76.2497 71.0772 76.2497 68.8509C76.2497 67.5692 75.7411 66.6167 69.2187 65.9786C63.7635 65.4401 60.3927 64.2383 60.3927 59.8751C60.3927 55.8561 63.7835 53.4626 69.463 53.4626C75.8406 53.4626 79.0022 55.6765 79.4009 60.4336C79.4159 60.5982 79.356 60.7577 79.2465 60.8774C79.1369 60.9921 78.982 61.0619 78.8227 61.0619H76.2347C75.9655 61.0619 75.731 60.8724 75.676 60.6131C75.053 57.8556 73.5469 56.973 69.4531 56.973C64.8705 56.973 64.337 58.5687 64.337 59.7654C64.337 61.2165 64.9653 61.6403 71.1485 62.4581C77.2718 63.2709 80.1788 64.4178 80.1788 68.7211C80.1788 73.0593 76.5586 75.5474 70.2459 75.5474L70.2748 75.5243ZM94.5099 51.1688H95.1782C95.7269 51.1688 95.8316 50.7848 95.8316 50.5604C95.8316 49.972 95.4277 49.972 95.2033 49.972H94.5152L94.5099 51.1688ZM93.6973 49.2839H95.1782C95.6869 49.2839 96.6843 49.2839 96.6843 50.4208C96.6843 51.2137 96.1757 51.3782 95.8712 51.4779C96.4647 51.5178 96.5048 51.9068 96.5844 52.4553C96.6244 52.7994 96.6891 53.3927 96.8088 53.5922H95.8963C95.8712 53.3927 95.7317 52.2957 95.7317 52.2359C95.6719 51.9916 95.587 51.8719 95.283 51.8719H94.5301V53.5972H93.6973V49.2839ZM91.9171 51.4281C91.9171 53.2132 93.358 54.6593 95.1285 54.6593C96.9135 54.6593 98.3545 53.1833 98.3545 51.4281C98.3545 49.6379 96.8937 48.2168 95.1233 48.2168C93.3782 48.2168 91.9122 49.618 91.9122 51.4231L91.9171 51.4281ZM98.9731 51.438C98.9731 53.5523 97.2426 55.2776 95.1334 55.2776C93.039 55.2776 91.2936 53.5722 91.2936 51.438C91.2936 49.2639 93.0791 47.5985 95.1334 47.5985C97.2026 47.5985 98.9678 49.2689 98.9678 51.438" fill="#689F63"/>
</svg>
