<svg xmlns="http://www.w3.org/2000/svg" viewBox="0 0 128 128"><defs><style>.cls-1{fill:#292929;}.cls-2{fill:#764abc;}</style></defs><title>Artboard 1</title><g id="Lager_1" data-name="Lager 1"><circle class="cls-1" cx="64" cy="64" r="50"/></g><g id="Layer_2" data-name="Layer 2"><path class="cls-2" d="M76.11,72.2a4.49,4.49,0,0,0-.48-9h-.16a4.46,4.46,0,0,0-4.31,4.63,4.59,4.59,0,0,0,1.28,3c-2.72,5.35-6.88,9.27-13.11,12.54a21.57,21.57,0,0,1-13,2.48,11.12,11.12,0,0,1-8.15-4.72,11.71,11.71,0,0,1-.64-12.38A18.88,18.88,0,0,1,43,62.37c-.31-1-.79-2.8-1-4.08C30.33,66.68,31.53,78,35.05,83.38c2.63,4,8,6.47,13.9,6.47a19.64,19.64,0,0,0,4.79-.56A30.64,30.64,0,0,0,76.11,72.2Zm14.06-9.91c-6.07-7.11-15-11-25.24-11H63.65a4.41,4.41,0,0,0-3.92-2.39h-.16a4.47,4.47,0,0,0,.16,8.94h.16a4.5,4.5,0,0,0,3.92-2.71h1.43a30.47,30.47,0,0,1,17,5.19,21.39,21.39,0,0,1,8.47,10.23A11.07,11.07,0,0,1,90.57,80,11.73,11.73,0,0,1,79.63,86.5a20.36,20.36,0,0,1-7.83-1.68c-.88.8-2.48,2.08-3.6,2.88a24.79,24.79,0,0,0,10.31,2.47c7.67,0,13.34-4.23,15.5-8.47,2.31-4.63,2.15-12.62-3.84-19.41ZM49.59,73.55a4.48,4.48,0,0,0,4.47,4.32h.16a4.48,4.48,0,0,0-.16-9H53.9a1.36,1.36,0,0,0-.56.08,29.3,29.3,0,0,1-4.15-17.74A21.39,21.39,0,0,1,53.9,38.88c2.32-3,6.79-4.4,9.83-4.47C72.2,34.25,75.79,44.79,76,49c1,.24,2.8.8,4,1.19-1-12.94-9-19.65-16.62-19.65-7.19,0-13.82,5.19-16.46,12.86-3.68,10.23-1.28,20.06,3.19,27.81a3.64,3.64,0,0,0-.55,2.31Z"/></g></svg>